<?xml version="1.0" standalone="no"?>
<!DOCTYPE svg PUBLIC "-//W3C//DTD SVG 20010904//EN"
 "http://www.w3.org/TR/2001/REC-SVG-20010904/DTD/svg10.dtd">
<svg version="1.0" xmlns="http://www.w3.org/2000/svg"
 width="330.000000pt" height="157.000000pt" viewBox="0 0 330.000000 157.000000"
 preserveAspectRatio="xMidYMid meet">
<metadata>
Created by potrace 1.16, written by Peter Selinger 2001-2019
</metadata>
<g transform="translate(0.000000,157.000000) scale(0.100000,-0.100000)"
fill="#000000" stroke="none">
<path d="M1348 511 c-31 -9 -59 -19 -62 -22 -10 -9 195 -82 229 -82 17 0 50 9
74 20 l44 19 -69 27 c-134 52 -153 55 -216 38z"/>
<path d="M1150 450 l-55 -18 35 -15 c19 -8 72 -29 117 -47 l82 -31 66 24 66
23 -28 13 c-55 25 -192 71 -210 70 -10 -1 -43 -9 -73 -19z"/>
<path d="M1616 406 l-60 -22 95 -37 c164 -64 151 -61 226 -36 l67 22 -29 13
c-54 22 -225 84 -232 83 -5 0 -35 -10 -67 -23z"/>
<path d="M983 397 c-35 -11 -63 -23 -63 -26 0 -9 199 -91 219 -91 20 0 144 41
139 46 -4 4 -229 94 -231 93 -1 0 -30 -10 -64 -22z"/>
<path d="M1441 346 c-36 -12 -61 -25 -55 -28 5 -3 62 -26 126 -51 l117 -46 56
19 c62 21 97 39 77 40 -8 0 -65 20 -129 45 -63 25 -118 45 -121 44 -4 0 -36
-11 -71 -23z"/>
<path d="M797 340 c-32 -10 -66 -21 -75 -25 -12 -4 19 -22 97 -57 l114 -50 74
23 c40 12 73 25 73 29 0 4 -195 91 -219 97 -3 0 -32 -7 -64 -17z"/>
<path d="M1928 297 c-32 -12 -58 -25 -58 -29 0 -3 33 -17 73 -31 39 -14 101
-36 138 -50 l65 -25 64 28 c61 27 63 29 40 38 -51 19 -261 92 -263 91 -1 0
-28 -10 -59 -22z"/>
<path d="M1251 283 l-74 -25 133 -55 134 -55 68 27 c38 15 67 29 65 31 -5 5
-248 105 -250 103 -1 -1 -35 -13 -76 -26z"/>
<path d="M565 266 l-70 -22 110 -53 110 -54 50 13 c58 14 120 38 114 44 -12
12 -212 96 -227 95 -9 0 -48 -10 -87 -23z"/>
<path d="M1735 225 l-60 -23 30 -12 c17 -6 81 -32 144 -56 l114 -46 63 27 c35
15 62 31 59 35 -7 12 -252 100 -272 99 -10 -1 -45 -12 -78 -24z"/>
<path d="M1063 217 c-34 -12 -64 -25 -67 -28 -3 -3 42 -27 102 -52 123 -54
169 -58 246 -24 l48 22 -112 48 c-61 26 -121 49 -133 51 -12 3 -50 -5 -84 -17z"/>
<path d="M2263 177 c-29 -13 -55 -25 -58 -28 -3 -3 26 -18 63 -33 65 -25 77
-26 213 -24 l144 3 -150 53 c-83 28 -153 52 -155 52 -3 -1 -28 -11 -57 -23z"/>
<path d="M1568 161 c-38 -14 -68 -29 -68 -33 0 -3 19 -14 43 -23 33 -12 72
-15 182 -13 l140 3 -80 32 c-44 17 -96 38 -115 46 -33 14 -40 13 -102 -12z"/>
<path d="M841 142 c-68 -22 -73 -26 -56 -38 14 -11 57 -14 169 -13 l151 1 -84
39 c-46 21 -88 38 -95 38 -6 -1 -44 -13 -85 -27z"/>
</g>
</svg>
